PathFileType	4	(X/Y/Z)	/Users/itak/Documents/Research/Walk-IL/dataset/trc/00370_00011.trc
DataRate	CameraRate	NumFrames	NumMarkers	Units	OrigDataRate	OrigDataStartFrame	OrigNumFrames
100.000000	100.000000	4	57	mm	100.000000	258	516
Frame#	Time	RPSI			LPSI			L3			STRN			T10			C7			CLAV			RBAK			LBAK			LSHO			LUPA			LAEL			LAOL			LWTS			LWPS			LFRA			LIFD			LHPS			LHTS			RSHO			RUPA			RAEL			RAOL			RWPS			RFRA			RIFD			RHTS			RHPS			RBHD			LFHD			RFHD			LBHD			LHIP			RHIP			RASI			LASI			LKNE			LTHI			LANK			LTIP			LTOE			LMT1			LMT5			LHEE			RKNE			RTHI			RANK			RTIP			RTOE			RMT1			RMT5			RHEE			RWTS			*53			*54			*55			*56			
		X1	Y1	Z1	X2	Y2	Z2	X3	Y3	Z3	X4	Y4	Z4	X5	Y5	Z5	X6	Y6	Z6	X7	Y7	Z7	X8	Y8	Z8	X9	Y9	Z9	X10	Y10	Z10	X11	Y11	Z11	X12	Y12	Z12	X13	Y13	Z13	X14	Y14	Z14	X15	Y15	Z15	X16	Y16	Z16	X17	Y17	Z17	X18	Y18	Z18	X19	Y19	Z19	X20	Y20	Z20	X21	Y21	Z21	X22	Y22	Z22	X23	Y23	Z23	X24	Y24	Z24	X25	Y25	Z25	X26	Y26	Z26	X27	Y27	Z27	X28	Y28	Z28	X29	Y29	Z29	X30	Y30	Z30	X31	Y31	Z31	X32	Y32	Z32	X33	Y33	Z33	X34	Y34	Z34	X35	Y35	Z35	X36	Y36	Z36	X37	Y37	Z37	X38	Y38	Z38	X39	Y39	Z39	X40	Y40	Z40	X41	Y41	Z41	X42	Y42	Z42	X43	Y43	Z43	X44	Y44	Z44	X45	Y45	Z45	X46	Y46	Z46	X47	Y47	Z47	X48	Y48	Z48	X49	Y49	Z49	X50	Y50	Z50	X51	Y51	Z51	X52	Y52	Z52	X53	Y53	Z53	X54	Y54	Z54	X55	Y55	Z55	X56	Y56	Z56	X57	Y57	Z57	

259	2.58	-631.3908081054688	950.5751342773438	-13.92401695251465	-565.9956665039062	952.8040771484375	-127.0089874267578	-607.7792358398438	1012.328247070312	-64.90077972412109	-393.7342529296875	1195.254150390625	40.76715469360352	-611.2694702148438	1131.697021484375	-72.66300201416016	-556.8077392578125	1378.458374023438	-69.93522644042969	-425.6881103515625	1321.410522460938	13.08955574035645	-634.8006591796875	1242.83642578125	-29.25687980651855	-520.1644897460938	1338.088500976562	-162.1693115234375	-418.2413940429688	1352.193481445312	-171.0690460205078	-414.4461975097656	1234.76171875	-244.0701141357422	-415.3989562988281	1032.716918945312	-266.1761779785156	-494.6103820800781	1023.208435058594	-236.5776062011719	-357.0287780761719	781.6633911132812	-210.2788696289062	-374.9113159179688	776.8155517578125	-276.8348693847656	-406.1099548339844	927.9654541015625	-276.7399597167969	-368.1909790039062	617.6953735351562	-217.4413604736328	-386.1943664550781	707.3262329101562	-277.9301452636719	-347.6835632324219	702.13818359375	-226.2612609863281	-588.2462768554688	1374.690673828125	98.81794738769531	-631.7251586914062	1314.841552734375	149.9315490722656	-663.0511474609375	1054.1337890625	211.6339569091797	-651.6779174804688	1036.685913085938	119.8604736328125	-510.8354187011719	867.3812255859375	294.1714782714844	-626.3314208984375	998.5531616210938	240.1259460449219	-376.9715881347656	755.6634521484375	288.0926818847656	-399.4986877441406	825.3056640625	283.2157592773438	-459.2780456542969	801.0140991210938	310.95556640625	-533.8101806640625	1589.703125	37.18346405029297	-327.465576171875	1565.780883789062	32.85667419433594	-390.9425048828125	1566.010864257812	111.6310119628906	-465.68798828125	1590.966674804688	-89.78890228271484	-435.5441284179688	900.5340576171875	-172.2001953125	-617.009521484375	891.0083618164062	117.9762268066406	-503.428955078125	919.7977905273438	135.9915161132812	-366.8997192382812	925.59716796875	-58.25466156005859	-257.8540954589844	473.754150390625	-100.4944534301758	-306.24560546875	598.37744140625	-129.8892517089844	-150.4988098144531	53.4846076965332	-86.62142944335938	-195.7966156005859	266.9476623535156	-108.0490264892578	-31.34789657592773	134.8261260986328	71.46588134765625	-102.6880950927734	95.72084045410156	71.45761871337891	-47.13703155517578	98.56185150146484	-28.49256324768066	-213.5694274902344	35.57825088500977	-48.75328063964844	-569.9841918945312	426.4067993164062	58.32472991943359	-552.9230346679688	677.3624267578125	128.9409942626953	-705.5589599609375	56.51228332519531	-74.05624389648438	-575.5714111328125	306.2143249511719	17.60489845275879	-507.4292297363281	42.65210342407227	-64.94864654541016	-546.667724609375	36.58131408691406	-122.9613418579102	-617.9194946289062	40.82189559936523	-26.92544364929199	-738.1474609375	64.60758209228516	-134.7193298339844	-463.8977966308594	902.103271484375	244.3984375	nan	nan	nan	nan	nan	nan	nan	nan	nan	nan	nan	nan	
260	2.59	-623.1029663085938	948.8365478515625	-13.28582000732422	-556.205322265625	950.6386108398438	-125.5542297363281	-598.9566650390625	1010.488586425781	-63.75167083740234	-386.3634948730469	1193.266479492188	44.69451904296875	-602.6578369140625	1129.853393554688	-71.51377105712891	-548.0890502929688	1376.561645507812	-67.89582824707031	-417.8462524414062	1319.457153320312	16.62431144714355	-626.5579223632812	1240.970825195312	-28.12444686889648	-510.365234375	1336.132568359375	-159.7140655517578	-408.3204956054688	1350.079467773438	-167.5491333007812	-403.992431640625	1232.425048828125	-240.3015594482422	-405.2877197265625	1030.314819335938	-262.0860900878906	-484.6774597167969	1021.021179199219	-233.0499267578125	-347.6494445800781	779.2423095703125	-205.1411743164062	-365.1416625976562	774.3158569335938	-271.8107604980469	-396.0830383300781	925.509765625	-272.3551330566406	-359.6257934570312	615.2904052734375	-211.9756164550781	-376.7864379882812	704.869384765625	-272.8018798828125	-338.6764831542969	699.5587768554688	-220.8549041748047	-581.392578125	1372.765014648438	100.569709777832	-625.353515625	1312.878540039062	151.1932525634766	-657.268798828125	1052.293212890625	213.1722106933594	-645.5089111328125	1034.745483398438	121.4520111083984	-505.2476806640625	865.7015991210938	296.4140319824219	-620.6669311523438	996.749267578125	241.8326873779297	-371.7733154296875	753.5049438476562	290.3832702636719	-394.0888977050781	823.2149047851562	285.3342590332031	-453.9817199707031	799.2328491210938	313.2511901855469	-526.2493896484375	1587.9658203125	39.38359069824219	-319.860107421875	1564.07958984375	37.14530944824219	-384.2818908691406	1564.299926757812	115.308235168457	-456.8583679199219	1589.190307617188	-86.88272857666016	-425.0972900390625	898.1553955078125	-168.7747650146484	-610.7384033203125	889.7109375	118.9801330566406	-497.7926635742188	917.984375	138.3816375732422	-358.2759399414062	923.461181640625	-53.72571182250977	-247.8699645996094	471.8369140625	-95.27477264404297	-296.4203186035156	595.9607543945312	-125.985237121582	-132.7524261474609	53.59911346435547	-71.93784332275391	-182.2598876953125	266.6026916503906	-98.76209259033203	-20.23376274108887	139.9873962402344	88.71105194091797	-91.09403991699219	100.3665084838867	87.06907653808594	-31.62730979919434	100.9013290405273	-10.92074394226074	-197.1922149658203	36.23039627075195	-35.80871963500977	-566.6217651367188	425.3827514648438	60.34035491943359	-548.203369140625	676.1532592773438	131.0266723632812	-705.2274169921875	57.25000381469727	-74.23830413818359	-573.15478515625	305.3135986328125	19.1331844329834	-507.3984375	42.65940093994141	-64.76789093017578	-546.5789184570312	36.7102165222168	-122.9496459960938	-617.8045654296875	41.06391906738281	-26.91433334350586	-737.7184448242188	65.98365020751953	-134.8802337646484	-458.3288879394531	900.1031494140625	246.3973693847656	nan	nan	nan	nan	nan	nan	nan	nan	nan	nan	nan	nan	
261	2.6	-614.77197265625	947.0493774414062	-12.61164474487305	-546.4996948242188	948.4240112304688	-124.1035537719727	-590.1421508789062	1008.698669433594	-62.62472534179688	-378.9355773925781	1191.31494140625	48.67499542236328	-593.9387817382812	1128.070434570312	-70.33948516845703	-539.2850952148438	1374.716796875	-65.81816864013672	-409.945556640625	1317.542236328125	20.21117210388184	-618.1895141601562	1239.156982421875	-26.97477722167969	-500.4120483398438	1334.240234375	-157.2040100097656	-398.2901916503906	1348.01171875	-163.9540405273438	-393.4058227539062	1230.109008789062	-236.4328308105469	-394.9617919921875	1027.944458007812	-257.8807067871094	-474.5696411132812	1018.839050292969	-229.4766693115234	-338.0746154785156	776.8613891601562	-199.7964477539062	-355.154052734375	771.8392944335938	-266.577392578125	-385.828857421875	923.0642700195312	-267.823486328125	-350.8421630859375	612.921142578125	-206.23876953125	-367.1401672363281	702.4336547851562	-267.4451904296875	-329.4627380371094	697.0131225585938	-215.200927734375	-574.4488525390625	1370.884765625	102.3494186401367	-618.917236328125	1310.95068359375	152.4463958740234	-651.4797973632812	1050.461547851562	214.5092926025391	-639.240234375	1032.847534179688	122.8491516113281	-499.9932861328125	863.8062744140625	298.5983276367188	-615.080810546875	994.8970947265625	243.3649139404297	-367.1278076171875	750.9052124023438	292.7539672851562	-389.0847778320312	820.741943359375	287.4852294921875	-449.1587219238281	797.156982421875	315.5185241699219	-518.644775390625	1586.258911132812	41.60370635986328	-312.2181396484375	1562.4462890625	41.51856231689453	-377.60546875	1562.640502929688	119.0524826049805	-447.9452514648438	1587.450927734375	-83.92298126220703	-414.7582397460938	895.9119873046875	-165.4029235839844	-604.2985229492188	888.402099609375	120.0061874389648	-492.2257385253906	916.0883178710938	140.5236511230469	-349.6805419921875	921.4572143554688	-49.31320571899414	-237.5504913330078	470.2680053710938	-89.25466156005859	-285.8417053222656	594.1367797851562	-121.2386932373047	-117.9463119506836	53.38800048828125	-58.93978881835938	-170.0209503173828	266.0519104003906	-89.7542724609375	-11.15869426727295	142.9467010498047	104.171272277832	-81.71416473388672	103.1475372314453	100.9250259399414	-18.76888656616211	101.9304809570312	4.8296799659729	-183.6751251220703	36.57119750976562	-24.4914379119873	-563.1073608398438	424.3949890136719	62.31455993652344	-543.3605346679688	674.9591064453125	133.0956726074219	-704.8558959960938	58.13786315917969	-74.45330810546875	-570.6087646484375	304.501708984375	20.63788414001465	-507.3390197753906	42.64775848388672	-64.57290649414062	-546.4559936523438	36.87932205200195	-122.9372100830078	-617.6512451171875	41.35275650024414	-26.91109657287598	-737.212158203125	67.53202819824219	-135.0873413085938	-452.9903259277344	897.8145751953125	248.3595886230469	nan	nan	nan	nan	nan	nan	nan	nan	nan	nan	nan	nan	
262	2.61	-606.3868408203125	945.253662109375	-11.86867618560791	-536.8731689453125	946.2145385742188	-122.6228561401367	-581.3524169921875	1006.987854003906	-61.50271987915039	-371.4306640625	1189.439819335938	52.6923828125	-585.1171264648438	1126.380615234375	-69.12117004394531	-530.3969116210938	1372.955444335938	-63.70250701904297	-401.9858093261719	1315.695678710938	23.83787536621094	-609.6970825195312	1237.426879882812	-25.79892921447754	-490.304443359375	1332.445556640625	-154.6365051269531	-388.1578674316406	1346.0283203125	-160.2878265380859	-382.6763916015625	1227.860961914062	-232.4656524658203	-384.3958129882812	1025.651000976562	-253.5472717285156	-464.2751159667969	1016.703247070312	-225.8677368164062	-328.30224609375	774.5737915039062	-194.2249145507812	-344.9277648925781	769.4308471679688	-261.1219177246094	-375.3254699707031	920.673583984375	-263.1304931640625	-341.8244018554688	610.634521484375	-200.2206878662109	-357.2235717773438	700.0645141601562	-261.8501586914062	-320.0129699707031	694.5663452148438	-209.2864379882812	-567.4000244140625	1369.077758789062	104.1547088623047	-612.4016723632812	1309.093505859375	153.6963500976562	-645.6876220703125	1048.673950195312	215.62744140625	-632.8651123046875	1031.030517578125	124.0360641479492	-495.0981140136719	861.719482421875	300.7073364257812	-609.580322265625	993.0244750976562	244.70263671875	-363.0487060546875	747.9019165039062	295.2233581542969	-384.502197265625	817.9132690429688	289.6852111816406	-444.8154907226562	794.8084716796875	317.7601318359375	-511.0005493164062	1584.589477539062	43.83840942382812	-304.5431823730469	1560.900756835938	45.98532867431641	-370.9034729003906	1561.047607421875	122.8695068359375	-438.9500732421875	1585.763427734375	-80.90988922119141	-404.5220947265625	893.8504028320312	-162.060791015625	-597.6642456054688	887.0993041992188	121.0766525268555	-486.6752319335938	914.1270141601562	142.4296569824219	-341.0812377929688	919.6367797851562	-45.01755523681641	-226.9158935546875	469.0487976074219	-82.35160064697266	-274.6272277832031	592.9404296875	-115.5920791625977	-106.0073013305664	52.74276733398438	-47.82854080200195	-158.9655456542969	265.2203674316406	-80.98921966552734	-3.887049674987793	143.4905700683594	117.7479934692383	-74.31441497802734	103.7944946289062	112.9001846313477	-8.455822944641113	101.5449295043945	18.52364349365234	-172.8724365234375	36.40592575073242	-14.9674015045166	-559.3805541992188	423.4578247070312	64.22110748291016	-538.3543090820312	673.782958984375	135.1330718994141	-704.4366455078125	59.20792388916016	-74.69528198242188	-567.899169921875	303.7735900878906	22.11263656616211	-507.2506408691406	42.6203727722168	-64.36991119384766	-546.2942504882812	37.09814834594727	-122.9156494140625	-617.4586181640625	41.68930053710938	-26.91369819641113	-736.620361328125	69.281494140625	-135.3403930664062	-447.8935241699219	895.27197265625	250.2814331054688	nan	nan	nan	nan	nan	nan	nan	nan	nan	nan	nan	nan	
